# xmcd
#
# Track frame offsets: 
#        150
#        17411
#        31782
#        44441
#        56257
#        71491
#        90648
#        104816
#        116964
#        132591
#
# Disc length: 1963 seconds
#
# Revision: 0
# Processed by: cddbd v1.5.2PL0 Copyright (c) Steve Scherf et al.
# Submitted via: ExactAudioCopy v0.99pb4
#
DISCID=8707a90a
DTITLE=Don Williams - New Moves
DYEAR=1986
DGENRE=Country
TTITLE0=Heartbeat In the Darkness
TTITLE1=I'll Never Be In Love Again
TTITLE2=Shot Full of Love
TTITLE3=We Got Love
TTITLE4=Send Her Roses
TTITLE5=Senorita
TTITLE6=The Light In Your Eyes
TTITLE7=It's About Time
TTITLE8=Then It's Love
TTITLE9=We've Got a Good Fire Goin'
EXTD=
EXTT0=
EXTT1=
EXTT2=
EXTT3=
EXTT4=
EXTT5=
EXTT6=
EXTT7=
EXTT8=
EXTT9=
PLAYORDER=
